<svg width="120" height="122" viewBox="0 0 120 122" fill="none" xmlns="http://www.w3.org/2000/svg">
<path d="M76.644 63.442C88.9513 67.0895 99.7612 74.6818 107.454 85.0811C115.146 95.4805 119.307 108.127 119.312 121.125H0.6875C0.69013 108.126 4.84979 95.4783 12.5427 85.0784C20.2356 74.6784 31.0471 67.0868 43.356 63.442L60 88.75L76.644 63.442ZM89.6562 30.9375C89.6562 38.9106 86.5318 46.5571 80.9701 52.1949C75.4085 57.8327 67.8653 61 60 61C52.1347 61 44.5915 57.8327 39.0299 52.1949C33.4682 46.5571 30.3438 38.9106 30.3438 30.9375C30.3438 22.9644 33.4682 15.3179 39.0299 9.6801C44.5915 4.04229 52.1347 0.875 60 0.875C67.8653 0.875 75.4085 4.04229 80.9701 9.6801C86.5318 15.3179 89.6562 22.9644 89.6562 30.9375Z" fill="#828282"/>
</svg>
