<svg width="20" height="20" viewBox="0 0 20 20" fill="none" xmlns="http://www.w3.org/2000/svg">
<path d="M6.63574 17.7777C7.3261 17.7777 7.88574 17.2181 7.88574 16.5277C7.88574 15.8374 7.3261 15.2777 6.63574 15.2777C5.94539 15.2777 5.38574 15.8374 5.38574 16.5277C5.38574 17.2181 5.94539 17.7777 6.63574 17.7777Z" fill="#FAFAFA"/>
<path d="M14.2305 17.7777C14.9208 17.7777 15.4805 17.2181 15.4805 16.5277C15.4805 15.8374 14.9208 15.2777 14.2305 15.2777C13.5401 15.2777 12.9805 15.8374 12.9805 16.5277C12.9805 17.2181 13.5401 17.7777 14.2305 17.7777Z" fill="#FAFAFA"/>
<path d="M17.6079 2.98342C17.5562 2.91969 17.491 2.86821 17.417 2.83266C17.3431 2.79712 17.2621 2.77841 17.1801 2.77787H5.61342L5.97453 3.88898H16.4523L14.969 10.5556H6.63564L4.09675 2.51675C4.06929 2.43145 4.0216 2.35406 3.95775 2.29118C3.8939 2.2283 3.81579 2.1818 3.73008 2.15564L1.4523 1.45564C1.38227 1.43412 1.30867 1.4266 1.23573 1.43352C1.16279 1.44044 1.09192 1.46166 1.02718 1.49597C0.896425 1.56525 0.798549 1.68364 0.755082 1.82509C0.711616 1.96654 0.726121 2.11946 0.795405 2.25021C0.86469 2.38097 0.983078 2.47884 1.12453 2.52231L3.11897 3.13342L5.66897 11.189L4.75786 11.9334L4.68564 12.0056C4.46027 12.2654 4.33253 12.5955 4.32441 12.9393C4.3163 13.2831 4.42833 13.6189 4.64119 13.889C4.79262 14.0731 4.98503 14.2193 5.20305 14.3157C5.42107 14.4122 5.65863 14.4563 5.89675 14.4445H15.169C15.3163 14.4445 15.4576 14.386 15.5618 14.2818C15.666 14.1776 15.7245 14.0363 15.7245 13.889C15.7245 13.7416 15.666 13.6003 15.5618 13.4961C15.4576 13.392 15.3163 13.3334 15.169 13.3334H5.80786C5.74389 13.3312 5.68156 13.3126 5.62689 13.2793C5.57223 13.246 5.52708 13.1991 5.4958 13.1433C5.46453 13.0874 5.44818 13.0245 5.44835 12.9605C5.44851 12.8964 5.46518 12.8336 5.49675 12.7779L6.83564 11.6668H15.4134C15.5418 11.6699 15.6674 11.6284 15.7687 11.5494C15.87 11.4704 15.9407 11.3587 15.969 11.2334L17.7301 3.45564C17.747 3.37282 17.7448 3.28723 17.7236 3.2054C17.7024 3.12357 17.6628 3.04765 17.6079 2.98342Z" fill="#FAFAFA"/>
</svg>
