<svg width="23" height="23" viewBox="0 0 23 23" fill="none" xmlns="http://www.w3.org/2000/svg">
<path d="M4.16621 5.68124L0.788086 2.30416L2.26204 0.8302L5.63913 4.20833H21.5162C21.6786 4.20831 21.8387 4.24626 21.9838 4.31912C22.1289 4.39199 22.2549 4.49777 22.3519 4.62801C22.4488 4.75825 22.514 4.90935 22.5421 5.06925C22.5703 5.22915 22.5607 5.39342 22.5141 5.54895L20.0141 13.8823C19.9498 14.097 19.818 14.2852 19.6382 14.419C19.4584 14.5528 19.2403 14.625 19.0162 14.625H6.24954V16.7083H17.7079V18.7917H5.20788C4.93161 18.7917 4.66666 18.6819 4.47131 18.4866C4.27596 18.2912 4.16621 18.0263 4.16621 17.75V5.68124ZM6.24954 6.29166V12.5417H18.2412L20.1162 6.29166H6.24954ZM5.72871 22.9583C5.31431 22.9583 4.91688 22.7937 4.62386 22.5007C4.33083 22.2077 4.16621 21.8102 4.16621 21.3958C4.16621 20.9814 4.33083 20.584 4.62386 20.291C4.91688 19.9979 5.31431 19.8333 5.72871 19.8333C6.14311 19.8333 6.54054 19.9979 6.83357 20.291C7.12659 20.584 7.29121 20.9814 7.29121 21.3958C7.29121 21.8102 7.12659 22.2077 6.83357 22.5007C6.54054 22.7937 6.14311 22.9583 5.72871 22.9583ZM18.2287 22.9583C17.8143 22.9583 17.4169 22.7937 17.1239 22.5007C16.8308 22.2077 16.6662 21.8102 16.6662 21.3958C16.6662 20.9814 16.8308 20.584 17.1239 20.291C17.4169 19.9979 17.8143 19.8333 18.2287 19.8333C18.6431 19.8333 19.0405 19.9979 19.3336 20.291C19.6266 20.584 19.7912 20.9814 19.7912 21.3958C19.7912 21.8102 19.6266 22.2077 19.3336 22.5007C19.0405 22.7937 18.6431 22.9583 18.2287 22.9583Z" fill="#474A51"/>
</svg>
