<svg width="16" height="10" viewBox="0 0 16 10" fill="none" xmlns="http://www.w3.org/2000/svg">
<path d="M10.5 9.16667C10.5 9.6269 10.1269 10 9.66667 10H1.33333C0.873096 10 0.5 9.6269 0.5 9.16667C0.5 8.70643 0.873096 8.33333 1.33333 8.33333H9.66667C10.1269 8.33333 10.5 8.70643 10.5 9.16667ZM15.5 5C15.5 5.46024 15.1269 5.83333 14.6667 5.83333H1.33333C0.873096 5.83333 0.5 5.46024 0.5 5C0.5 4.53976 0.873096 4.16667 1.33333 4.16667H14.6667C15.1269 4.16667 15.5 4.53976 15.5 5ZM10.5 0.833333C10.5 1.29357 10.1269 1.66667 9.66667 1.66667H1.33333C0.873096 1.66667 0.5 1.29357 0.5 0.833333C0.5 0.373096 0.873096 0 1.33333 0H9.66667C10.1269 0 10.5 0.373096 10.5 0.833333Z" fill="#333333"/>
</svg>
