<svg width="28" height="28" viewBox="0 0 28 28" fill="none" xmlns="http://www.w3.org/2000/svg">
<path d="M14 28C21.732 28 28 21.732 28 14C28 6.26801 21.732 0 14 0C6.26801 0 0 6.26801 0 14C0 21.732 6.26801 28 14 28Z" fill="#00A790"/>
<path d="M19.9358 6.73866L21.2612 8.06399L10.3318 18.984L8.26915 19.7307L9.01582 17.668L19.9358 6.73866ZM19.9358 4.87199C19.718 4.86941 19.5019 4.91016 19.3 4.99188C19.0981 5.0736 18.9145 5.19465 18.7598 5.34799L7.40115 16.6413L5.81449 21.056C5.77987 21.1957 5.77806 21.3416 5.80918 21.4822C5.84031 21.6228 5.90354 21.7542 5.99392 21.8663C6.08431 21.9784 6.19939 22.068 6.33018 22.1282C6.46096 22.1884 6.6039 22.2175 6.74782 22.2133C6.80971 22.2224 6.8726 22.2224 6.93449 22.2133L11.3492 20.6267L22.6798 9.27733C23.0017 8.9265 23.1715 8.46252 23.1523 7.98681C23.1331 7.5111 22.9263 7.06236 22.5772 6.73866L21.2612 5.42266C21.0832 5.24136 20.8713 5.09692 20.6374 4.99763C20.4036 4.89833 20.1525 4.84613 19.8985 4.84399L19.9358 4.87199Z" fill="white"/>
</svg>
