<svg width="14" height="14" viewBox="0 0 14 14" fill="none" xmlns="http://www.w3.org/2000/svg">
<path d="M6.99967 12.3334C9.93301 12.3334 12.333 9.93337 12.333 7.00004C12.333 4.06671 9.93301 1.66671 6.99967 1.66671C4.06634 1.66671 1.66634 4.06671 1.66634 7.00004C1.66634 9.93337 4.06634 12.3334 6.99967 12.3334ZM6.99967 0.333374C10.6663 0.333374 13.6663 3.33337 13.6663 7.00004C13.6663 10.6667 10.6663 13.6667 6.99967 13.6667C3.33301 13.6667 0.333008 10.6667 0.333008 7.00004C0.333008 3.33337 3.33301 0.333374 6.99967 0.333374ZM9.19967 9.80004L8.33301 10.3334L6.33301 6.86671V3.66671H7.33301V6.60004L9.19967 9.80004Z" fill="#828282"/>
</svg>
