<svg width="14" height="14" viewBox="0 0 14 14" fill="none" xmlns="http://www.w3.org/2000/svg">
<path d="M13.0428 1.80149L13.0214 1.78811L10.3154 0.454956L7.39467 4.34924L8.73842 6.14102C8.69821 6.81674 8.41165 7.45428 7.933 7.93293C7.45434 8.41158 6.8168 8.69813 6.14108 8.73833L4.34933 7.39458L0.455078 10.3152L1.77714 12.9986L1.78827 13.0213L1.80167 13.0427C1.87222 13.1564 1.9707 13.2501 2.08772 13.3149C2.20474 13.3798 2.33641 13.4136 2.4702 13.4132H3.16845C4.51383 13.4132 5.84604 13.1482 7.089 12.6334C8.33197 12.1185 9.46136 11.3639 10.4127 10.4125C11.364 9.46121 12.1186 8.33182 12.6335 7.08885C13.1483 5.84588 13.4133 4.51368 13.4133 3.1683V2.47002C13.4138 2.33623 13.3799 2.20456 13.3151 2.08754C13.2502 1.97052 13.1565 1.87204 13.0428 1.80149ZM12.4133 3.1683C12.4133 8.26596 8.26608 12.4132 3.16845 12.4132H2.60345L1.71889 10.6175L4.34952 8.64452L5.81411 9.74292H5.98077C6.9783 9.74181 7.93466 9.34504 8.64002 8.63968C9.34539 7.93432 9.74215 6.97796 9.74327 5.98042V5.81377L8.64486 4.34921L10.6176 1.71874L12.4133 2.60346V3.1683Z" fill="#828282"/>
</svg>
