<svg width="15" height="14" viewBox="0 0 15 14" fill="none" xmlns="http://www.w3.org/2000/svg">
<path d="M14.0814 0.146012C14.1529 0.217546 14.201 0.309076 14.2194 0.408519C14.2378 0.507962 14.2256 0.610644 14.1844 0.703012L8.52744 13.431C8.48791 13.52 8.42325 13.5956 8.34139 13.6483C8.25953 13.7011 8.16404 13.7288 8.06664 13.7281C7.96925 13.7273 7.87419 13.6982 7.79315 13.6442C7.7121 13.5901 7.6486 13.5136 7.61044 13.424L5.56944 8.65801L0.802438 6.61601C0.713162 6.57761 0.637013 6.51403 0.583302 6.43304C0.529591 6.35204 0.500647 6.25715 0.500011 6.15997C0.499374 6.06279 0.527072 5.96753 0.579718 5.88584C0.632363 5.80415 0.707673 5.73958 0.796438 5.70001L13.5244 0.0430117C13.6167 0.00205954 13.7192 -0.0100187 13.8184 0.00836516C13.9176 0.026749 14.009 0.0747343 14.0804 0.146012H14.0814ZM2.24944 6.14801L6.14644 7.81801C6.26429 7.86881 6.35809 7.96297 6.40844 8.08101L8.07844 11.978L12.7424 1.48401L2.24944 6.14801Z" fill="white"/>
</svg>
