<svg width="21" height="20" viewBox="0 0 21 20" fill="none" xmlns="http://www.w3.org/2000/svg">
<path d="M10.5007 1.71769C12.9476 -0.479188 16.7288 -0.406271 19.0861 1.95519C21.4424 4.31769 21.5236 8.08019 19.332 10.5344L10.4986 19.3802L1.66739 10.5344C-0.524278 8.08019 -0.441986 4.31144 1.91322 1.95519C4.2726 -0.403146 8.04656 -0.482313 10.5007 1.71769V1.71769ZM17.6111 3.42706C16.0486 1.86248 13.5278 1.79894 11.8924 3.26769L10.5018 4.5156L9.1101 3.26873C7.46947 1.7979 4.95385 1.86248 3.38718 3.42915C1.8351 4.98123 1.75697 7.4656 3.18718 9.10727L10.4997 16.4312L17.8122 9.10831C19.2434 7.4656 19.1653 4.98435 17.6111 3.42706V3.42706Z" fill="#474A51"/>
</svg>
