<svg width="15" height="15" viewBox="0 0 15 15" fill="none" xmlns="http://www.w3.org/2000/svg">
<path d="M14.2172 0.646012C14.2887 0.717546 14.3368 0.809076 14.3552 0.908519C14.3736 1.00796 14.3614 1.11064 14.3202 1.20301L8.66318 13.931C8.62365 14.02 8.55899 14.0956 8.47713 14.1483C8.39527 14.2011 8.29978 14.2288 8.20239 14.2281C8.10499 14.2273 8.00993 14.1982 7.92889 14.1442C7.84784 14.0901 7.78434 14.0136 7.74618 13.924L5.70518 9.15801L0.93818 7.11601C0.848905 7.07761 0.772755 7.01403 0.719044 6.93304C0.665333 6.85204 0.636389 6.75715 0.635753 6.65997C0.635116 6.56279 0.662815 6.46753 0.71546 6.38584C0.768105 6.30415 0.843415 6.23958 0.93218 6.20001L13.6602 0.543012C13.7524 0.50206 13.8549 0.489981 13.9541 0.508365C14.0534 0.526749 14.1447 0.574734 14.2162 0.646012H14.2172ZM2.38518 6.64801L6.28218 8.31801C6.40003 8.36881 6.49383 8.46297 6.54418 8.58101L8.21418 12.478L12.8782 1.98401L2.38518 6.64801Z" fill="white"/>
</svg>
