<svg width="13" height="11" viewBox="0 0 13 11" fill="none" xmlns="http://www.w3.org/2000/svg">
<path d="M1.93429 0.357117H10.7914C11.2658 0.357086 11.7222 0.538576 12.067 0.864358C12.4118 1.19014 12.6189 1.63551 12.6457 2.10912L12.6486 2.21426V8.78569C12.6486 9.26005 12.4671 9.71645 12.1413 10.0613C11.8156 10.4061 11.3702 10.6131 10.8966 10.64L10.7914 10.6428H1.93429C1.45993 10.6429 1.00353 10.4614 0.658731 10.1356C0.31393 9.80981 0.106862 9.36444 0.0800056 8.89083L0.0771484 8.78569V2.21426C0.0771174 1.7399 0.258608 1.2835 0.584389 0.938699C0.910171 0.593898 1.35554 0.38683 1.82915 0.359974L1.93429 0.357117H10.7914H1.93429ZM11.7914 3.7314L6.56058 6.4514C6.50991 6.47773 6.45449 6.49367 6.39757 6.49828C6.34066 6.5029 6.2834 6.49609 6.22915 6.47826L6.16515 6.4514L0.934291 3.7314V8.78569C0.934301 9.03666 1.02867 9.27844 1.19868 9.46306C1.36868 9.64767 1.60189 9.76161 1.85201 9.78226L1.93429 9.78569H10.7914C11.0425 9.78567 11.2844 9.69122 11.469 9.52109C11.6536 9.35097 11.7675 9.11762 11.788 8.8674L11.7914 8.78569V3.7314ZM10.7914 1.21426H1.93429C1.68333 1.21427 1.44154 1.30864 1.25692 1.47865C1.07231 1.64865 0.958371 1.88186 0.93772 2.13197L0.934291 2.21426V2.76512L6.36286 5.58797L11.7914 2.76512V2.21426C11.7914 1.9632 11.697 1.72134 11.5268 1.53671C11.3567 1.35208 11.1234 1.2382 10.8731 1.21769L10.7914 1.21426Z" fill="#FAFAFA"/>
</svg>
