<svg width="14" height="14" viewBox="0 0 14 14" fill="none" xmlns="http://www.w3.org/2000/svg">
<path d="M13.4061 2.30149L13.3847 2.28811L10.6787 0.954956L7.75795 4.84924L9.1017 6.64102C9.06149 7.31674 8.77494 7.95428 8.29628 8.43293C7.81762 8.91158 7.18008 9.19813 6.50436 9.23833L4.71261 7.89458L0.818359 10.8152L2.14042 13.4986L2.15155 13.5213L2.16495 13.5427C2.2355 13.6564 2.33398 13.7501 2.451 13.8149C2.56802 13.8798 2.69969 13.9136 2.83348 13.9132H3.53173C4.87711 13.9132 6.20932 13.6482 7.45229 13.1334C8.69525 12.6185 9.82464 11.8639 10.776 10.9125C11.7273 9.96121 12.4819 8.83182 12.9968 7.58885C13.5116 6.34588 13.7766 5.01368 13.7766 3.6683V2.97002C13.777 2.83623 13.7432 2.70456 13.6784 2.58754C13.6135 2.47052 13.5198 2.37204 13.4061 2.30149ZM12.7766 3.6683C12.7766 8.76596 8.62936 12.9132 3.53173 12.9132H2.96673L2.08217 11.1175L4.7128 9.14452L6.17739 10.2429H6.34405C7.34158 10.2418 8.29794 9.84504 9.0033 9.13968C9.70867 8.43432 10.1054 7.47796 10.1065 6.48042V6.31377L9.00814 4.84921L10.9809 2.21874L12.7766 3.10346V3.6683Z" fill="#FAFAFA"/>
</svg>
